<svg xmlns="http://www.w3.org/2000/svg" viewBox="0 0 24 24" width="24" height="24">
  <g fill="none" stroke="currentColor" stroke-width="0.9" stroke-linecap="round" stroke-linejoin="round" vector-effect="non-scaling-stroke">
    <!-- большой округлый капюшон -->
    <path d="M7.4 9.2c.7-3 3-4.9 4.6-4.9s3.9 1.9 4.6 4.9"/>
    <!-- плечи -->
    <path d="M4.4 10.9l3-1.8 1.8 1.8h5.6l1.8-1.8 3 1.8"/>
    <!-- корпус -->
    <path d="M6.2 11.1v6.9c0 .85.7 1.5 1.6 1.5h8.4c.9 0 1.6-.65 1.6-1.5v-6.9"/>
    <!-- рукава -->
    <path d="M7.2 11.5c-1.3 1.2-1.7 3.6-.6 6.2"/>
    <path d="M16.8 11.5c1.3 1.2 1.7 3.6.6 6.2"/>
    <!-- тонкая центральная складка -->
    <path d="M12 11.2v6.6"/>
  </g>
</svg>