<svg xmlns="http://www.w3.org/2000/svg" viewBox="0 0 24 24" width="24" height="24" aria-hidden="true">
  <g fill="none" stroke="currentColor" stroke-width="1.05" stroke-linecap="round" stroke-linejoin="round" vector-effect="non-scaling-stroke">
    <!-- большой округлый капюшон -->
    <path d="M7.6 9c.6-3 3-4.7 4.4-4.7S15.8 6 16.4 9"/>
    <!-- плечи и верх корпуса -->
    <path d="M4.2 11l3.1-1.8 1.8 1.8h5.8l1.8-1.8 3.1 1.8"/>
    <!-- корпус -->
    <path d="M6 11.1v7.1c0 .9.7 1.6 1.6 1.6h8.8c.9 0 1.6-.7 1.6-1.6V11.1"/>
    <!-- рукава -->
    <path d="M7.3 11.4c-1.3 1.2-1.7 3.6-.5 6.4"/>
    <path d="M16.7 11.4c1.3 1.2 1.7 3.6.5 6.4"/>
    <!-- тонкая центральная складка (без кармана) -->
    <path d="M12 11v6.8"/>
  </g>
</svg>