<svg xmlns="http://www.w3.org/2000/svg" viewBox="0 0 24 24" width="24" height="24">
  <g fill="none" stroke="currentColor" stroke-width="1.5" stroke-linecap="round" stroke-linejoin="round" vector-effect="non-scaling-stroke">
    <!-- upper (left-facing, flat heel) -->
    <path d="M4 12.5V11a1.5 1.5 0 0 1 1.5-1.5H8l3.5 2.5h3.2c.9 0 1.8.4 2.3 1.1l1.5 1.9"/>
    <!-- toe cap -->
    <path d="M8 12.5c.8-.3 1.7-.5 2.6-.5"/>
    <!-- laces: 3 short ticks -->
    <path d="M11.8 11.7l-.9 .6"/>
    <path d="M10.7 11.1l-.9 .6"/>
    <path d="M9.6 10.5l-.9 .6"/>
    <!-- panel arcs -->
    <path d="M5.5 12.4A5 5 0 0 1 8 11.2"/>
    <path d="M15.7 13.4a3.5 3.5 0 0 1 1.9-1"/>
    <!-- sole: two lines joined on the left -->
    <path d="M3 15H20"/>
    <path d="M3 17H19.5"/>
    <path d="M3 15v2"/>
  </g>
</svg>