<svg xmlns="http://www.w3.org/2000/svg" viewBox="0 0 24 24" width="24" height="24" aria-hidden="true">
  <!-- зеркалим вправо->влево, чтобы был левый кроссовок -->
  <g fill="none" stroke="currentColor" stroke-width="1.05" stroke-linecap="round" stroke-linejoin="round" vector-effect="non-scaling-stroke" transform="scale(-1,1) translate(-24,0)">
    <!-- двойная подошва с зазором -->
    <path d="M3.2 19.6H20.8"/>
    <path d="M3.2 18H20.8"/>
    <!-- вертикальная пятка -->
    <path d="M4.8 18v-3.8"/>
    <!-- верх (минимальный, AF1-профиль: округлый нос, низкий скос к носку) -->
    <path d="M4.8 14.2l4.7-2.4 1.7 1.9 2.2-1.2 4.6 2.3c1.2.6 2.3.8 2.8.6V18"/>
    <!-- язычок короткий -->
    <path d="M10.8 11.2l-1.3 1.1 2 .3"/>
    <!-- 2–3 коротких шнурка по диагонали -->
    <path d="M12.6 11.2l1.8.7"/>
    <path d="M11.9 12l1.8.7"/>
    <path d="M11.2 12.8l1.8.7"/>
    <!-- плавные дуги панелей -->
    <path d="M6.1 17.2a5 5 0 0 1 6.5-3.1"/>
    <path d="M12.4 17.2a3 3 0 0 1 2.6-2"/>
    <!-- короткая перемычка -->
    <path d="M9.6 15.2h2"/>
  </g>
</svg>