<svg xmlns="http://www.w3.org/2000/svg" viewBox="0 0 24 24" width="24" height="24" aria-hidden="true">
  <g fill="none" stroke="currentColor" stroke-width="1" stroke-linecap="round" stroke-linejoin="round" vector-effect="non-scaling-stroke">
    <!-- внешний контур капюшона -->
    <path d="M7 4.6c2.2-1.9 7.8-1.9 10 0"/>
    <!-- внутренняя дуга капюшона -->
    <path d="M8.4 7.2c1.9-1.1 5.3-1.1 7.2 0"/>
    <!-- V-горловина -->
    <path d="M10.8 10.6L12 9l1.2 1.6"/>
    <!-- центральная молния -->
    <path d="M12 9v10"/>
    <!-- ЛЕВЫЙ рукав -->
    <path d="M6.2 10.2L4.6 13.5V18.8"/>
    <!-- ПРАВЫЙ рукав -->
    <path d="M17.8 10.2L19.4 13.5V18.8"/>
    <!-- корпус -->
    <path d="M7.2 11.2L6 13.6V17c0 1.1.9 2 2 2h8c1.1 0 2-.9 2-2v-3.4l-1.2-2.4H7.2z"/>
    <!-- нижняя резинка (двойная линия) -->
    <path d="M7.2 19.5h9.6"/>
    <path d="M8.6 20.6h6.8"/>
  </g>
</svg>