<svg xmlns="http://www.w3.org/2000/svg" viewBox="0 0 24 24" width="24" height="24" aria-hidden="true">
  <g fill="none" stroke="currentColor" stroke-width="1.8"
     stroke-linecap="round" stroke-linejoin="round" vector-effect="non-scaling-stroke">
    <!-- Подошва -->
    <path d="M4 19H20"/>
    <path d="M4 17H20"/>

    <!-- Ровный задник -->
    <path d="M5 17V13"/>

    <!-- Контур верха (от пятки к носку) -->
    <path d="M5 13l4.8-2.5 1.9 2 2.2-1.2 4.6 2.4c1.6.8 2.5 1.1 3.5.9V17"/>

    <!-- Язычок -->
    <path d="M12 10.7l-1.6 1.3 2.4.3"/>

    <!-- Шнурки (3 коротких штриха) -->
    <path d="M14.2 10.7l2 .8"/>
    <path d="M13.4 11.5l2 .8"/>
    <path d="M12.6 12.3l2 .8"/>

    <!-- Декоративные панели -->
    <path d="M6 17a5.2 5.2 0 0 1 7.2-3.2"/>
    <path d="M12.4 17a3.2 3.2 0 0 1 3.2-2.2"/>

    <!-- Центральная перемычка -->
    <path d="M10 15h3"/>
  </g>
</svg>