<svg xmlns="http://www.w3.org/2000/svg" viewBox="0 0 24 24" width="24" height="24" aria-hidden="true">
  <g fill="none" stroke="currentColor" stroke-width="1" stroke-linecap="round" stroke-linejoin="round" vector-effect="non-scaling-stroke">
    <!-- разделённая подошва -->
    <path d="M4 19H20"/>
    <path d="M4 17H20"/>
    <!-- вертикальная пятка -->
    <path d="M5 17V13"/>
    <!-- верх кроссовка (как на рефе: плавный нос, низкий профиль) -->
    <path d="M5 13l4.7-2.4 1.9 2 2.1-1.2 4.7 2.4c1.4.7 2.6.9 3.2.7V17"/>
    <!-- язычок -->
    <path d="M12.1 10.8l-1.5 1.3 2.2.3"/>
    <!-- три шнурка по диагонали -->
    <path d="M14.2 10.8l2 .8"/>
    <path d="M13.5 11.6l2 .8"/>
    <path d="M12.8 12.4l2 .8"/>
    <!-- панели: дуга у задника и дуга у носка, плюс перемычка -->
    <path d="M6.2 17a5 5 0 0 1 7-3.2"/>
    <path d="M15.9 16.6a3 3 0 0 1 2.9-1.9"/>
    <path d="M10.2 15h2.8"/>
  </g>
</svg>