<svg xmlns="http://www.w3.org/2000/svg" viewBox="0 0 24 24" width="24" height="24">
  <g fill="none" stroke="currentColor" stroke-width="1.5" stroke-linecap="round" stroke-linejoin="round">
    <!-- верх кроссовка (влево) -->
    <path d="M20.8 12.2l-3.8 2.8H9.8c-1.9 0-3.6-.7-4.8-1.8L3 12v2.5L1 16V18h17.2c1.9 0 3.7-.5 5.3-1.5v-2c0-.8-.3-1.2-.7-1.4z"/>
    <!-- шнуровка -->
    <path d="M15.5 13h-2M13 12h-2M10.5 11H8.8"/>
    <!-- линия подошвы/протектор -->
    <path d="M1 16h16.2c1.8 0 3.5-.5 5.3-1.5"/>
    <!-- окно "air" в подошве -->
    <rect x="16.8" y="14.1" width="3.6" height="1.6" rx=".8"/>
    <!-- петелька на пятке -->
    <path d="M20.8 12.2v-1.4c0-.8-.6-1.5-1.4-1.7l-2.2-.6"/>
  </g>
</svg>