<svg xmlns="http://www.w3.org/2000/svg" viewBox="0 0 24 24" width="24" height="24" aria-hidden="true">
  <g fill="none" stroke="currentColor" stroke-width="1.5" stroke-linecap="round" stroke-linejoin="round" vector-effect="non-scaling-stroke">
    <!-- капюшон -->
    <path d="M8 6c1.6-1.8 6.4-1.8 8 0"/>
    <!-- корпус (толстовка) -->
    <path d="M6.5 8.5L5 11v6a2 2 0 0 0 2 2h10a2 2 0 0 0 2-2v-6l-1.5-2.5-2 1.8H8.5z"/>
    <!-- шнурки (оба одинаковые, чуть длиннее) -->
    <path d="M11 10.2v2.6M13 10.2v2.6"/>
    <!-- рукава: внешние контуры -->
    <path d="M5.2 10.1L4 13v5"/>
    <path d="M18.8 10.1L20 13v5"/>
    <!-- манжеты -->
    <path d="M5 14.2v3.3M19 14.2v3.3"/>
    <!-- нижняя резинка -->
    <path d="M7.5 19.5h9"/>
  </g>
</svg>