<svg xmlns="http://www.w3.org/2000/svg" viewBox="0 0 24 24" width="24" height="24">
  <g fill="none" stroke="currentColor" stroke-width="1.3" stroke-linecap="round" stroke-linejoin="round">
    <!-- Пятка: строгий прямой угол -->
    <path d="M20 10V15"/>

    <!-- Верх кроссовка (влево) -->
    <path d="M4 14.2c1.9-1.7 4.7-3 7.5-3.6l2-2.5 3.1 1.8c.6.35 1.1.85 1.6 1.4l1.8 2.1"/>

    <!-- Язычок -->
    <path d="M12.7 9.2l-1.1 1.4"/>

    <!-- Шнуровка -->
    <path d="M14.5 11.5l-1.9 1M12.6 11l-1.8 1M10.8 10.7l-1.6.9"/>

    <!-- Дуги панелей -->
    <path d="M7.2 13.1a5.4 5.4 0 0 1 3-2.2"/>
    <path d="M16.8 13a4.6 4.6 0 0 1 2.7-1.9"/>

    <!-- Подошва: две горизонтальные линии -->
    <path d="M3 15h17"/>
    <path d="M3 16.5H19.5"/>
  </g>
</svg>