<svg xmlns="http://www.w3.org/2000/svg" viewBox="0 0 24 24" width="24" height="24">
  <g fill="none" stroke="currentColor" stroke-width="1.8" stroke-linecap="round" stroke-linejoin="round">
    <!-- верх кроссовка (влево) -->
    <path d="M3.5 14.6c1.5-1.6 3.9-3 6.6-3.7l2.2-2.6 2.7 1.7c.6.4 1.1.9 1.6 1.5l1.6 1.9c1.2 1.3 2.6 2.1 4 2.6v1.3c0 1.2-1 2.1-2.2 2.1H6.4c-1.2 0-2.4-.5-3.2-1.3l.3-1.5z"/>
    <!-- шнуровка -->
    <path d="M13.4 11.1l-1.9 1M15.2 11.7l-1.9 1M11.6 10.6l-1.7.9"/>
    <!-- язычок -->
    <path d="M12.2 9.1l-1.2 1.6"/>
    <!-- дуги панелей -->
    <path d="M7.2 13.2a5.6 5.6 0 0 1 3.1-2.3"/>
    <path d="M16.6 13.1a4.4 4.4 0 0 1 2.7-2"/>
    <!-- подошва (две линии) -->
    <path d="M3 16.5h17.5"/>
    <path d="M3 15h19"/>
  </g>
</svg>