<svg xmlns="http://www.w3.org/2000/svg" viewBox="0 0 24 24" width="24" height="24">
  <g fill="none" stroke="currentColor" stroke-width="1.5" stroke-linecap="round" stroke-linejoin="round">
    <!-- пятка: строгий угол -->
    <path d="M20 10V17.2"/>

    <!-- верх кроссовка (влево) -->
    <path d="M4 14.2
             C7.4 11.4 10.8 10.3 14.4 10.6
             L18 12.6
             L20 10"/>

    <!-- язычок -->
    <path d="M13.6 10.4l-1.2 1.6"/>

    <!-- шнуровка -->
    <path d="M15.7 11.7l-1.8 1"/>
    <path d="M14.5 11.2l-1.7 .9"/>
    <path d="M13.3 10.8l-1.6 .8"/>

    <!-- дуги панелей -->
    <path d="M6.2 13a5 5 0 0 1 3.3-1.8"/>
    <path d="M16.5 13a4 4 0 0 1 2.5-1.4"/>

    <!-- ПОДОШВА: две линии + соединение слева -->
    <path d="M3 15H21"/>      <!-- midsole -->
    <path d="M3 17.2H20"/>    <!-- outsole -->
    <path d="M3 15V17.2"/>    <!-- соединяем левый край -->
  </g>
</svg>