<svg xmlns="http://www.w3.org/2000/svg" viewBox="0 0 24 24" width="24" height="24">
  <g fill="none" stroke="currentColor" stroke-width="1.5" stroke-linecap="round" stroke-linejoin="round" vector-effect="non-scaling-stroke">
    <!-- hood -->
    <path d="M6 8a6 6 0 0 1 12 0"/>
    <!-- hood opening hint -->
    <path d="M11.5 6.2c.3.5 1.7.5 2 0"/>
    <!-- shoulders -->
    <path d="M4 10c1.8.9 3 .9 4 0M20 10c-1.8.9-3 .9-4 0"/>
    <!-- body -->
    <path d="M6 10v7.8a2.2 2.2 0 0 0 2.2 2.2H15.8A2.2 2.2 0 0 0 18 17.8V10"/>
    <!-- sleeves -->
    <path d="M6 10c-1 .8-2 1.7-2.5 3.2M18 10c1 .8 2 1.7 2.5 3.2"/>
    <!-- hem -->
    <path d="M6 19.5h12"/>
  </g>
</svg>