<svg xmlns="http://www.w3.org/2000/svg" viewBox="0 0 24 24" width="24" height="24">
  <!-- зеркалим, чтобы кед смотрел влево -->
  <g fill="none" stroke="currentColor" stroke-width="0.8" stroke-linecap="round" stroke-linejoin="round" vector-effect="non-scaling-stroke" transform="scale(-1,1) translate(-24,0)">
    <!-- двойная плоская подошва -->
    <path d="M3.4 19.6H20.6"/>
    <path d="M3.4 18.2H20.6"/>
    <!-- ровная вертикальная пятка -->
    <path d="M4.8 18.2v-3.8"/>
    <!-- верх кеда: низкий профиль, плавный нос, без логотипов -->
    <path d="M4.8 14.4l4.5-2.3 1.7 1.8 1.8-1 4.8 2.3c1.2.55 2.1.75 2.5.6v2.4"/>
    <!-- короткий язычок -->
    <path d="M10.8 11.3l-1.2 1 1.8.3"/>
    <!-- 3 коротких шнурка по диагонали -->
    <path d="M12.6 11.2l1.6.6M11.9 12.0l1.6.6M11.2 12.8l1.6.6"/>
    <!-- дуги панелей (минимал) -->
    <path d="M6.2 17.1a4.8 4.8 0 0 1 6.2-2.9"/>
    <!-- маленькая перемычка на союзке -->
    <path d="M9.7 15.2h2"/>
  </g>
</svg>