<svg xmlns="http://www.w3.org/2000/svg" viewBox="0 0 24 24" width="24" height="24" aria-hidden="true">
  <!-- Повернули влево через transform -->
  <g fill="none" stroke="currentColor" stroke-width="1.5" stroke-linecap="round"
     stroke-linejoin="round" vector-effect="non-scaling-stroke"
     transform="scale(-1,1) translate(-24,0)">

    <!-- Подошва -->
    <path d="M4 20h16"/>
    <path d="M4 18h16"/>

    <!-- Ровная пятка + верх к носку -->
    <path d="M4 18v-3l4-2 2 2 2-1.5 3 2c1.3.8 2.8 1.3 4 .9"/>

    <!-- Панели -->
    <path d="M7 18a5 5 0 0 1 6-3"/>
    <path d="M11 18a3 3 0 0 1 3-2"/>

    <!-- Шнурки -->
    <path d="M12.2 13.1l2.4-1.1"/>
    <path d="M11.5 13.9l2.7-1.2"/>
    <path d="M10.8 14.7l3-1.2"/>

    <!-- Деталь на союзке -->
    <path d="M9.5 16h2.2"/>
  </g>
</svg>