<svg xmlns="http://www.w3.org/2000/svg" viewBox="0 0 24 24" width="24" height="24" aria-hidden="true">
  <g fill="none" stroke="currentColor" stroke-width="1" stroke-linecap="round" stroke-linejoin="round" vector-effect="non-scaling-stroke">
    <!-- внешний контур капюшона -->
    <path d="M7 4.5C9.2 2.6 14.8 2.6 17 4.5c.7.7 1.2 1.6 1.5 2.6"/>
    <!-- внутренняя дуга капюшона -->
    <path d="M8.6 7.3c1.8-1.1 5-1.1 6.8 0"/>
    <!-- V-образная горловина -->
    <path d="M10.6 11.2L12 9.5l1.4 1.7"/>
    <!-- центральная молния -->
    <path d="M12 8.8v9.9"/>
    <!-- корпус + рукава (покатые плечи) -->
    <path d="M4.2 10.2l-1.7 3.5v3.2c0 1.1.9 2 2 2H19.5c1.1 0 2-.9 2-2v-3.2l-1.7-3.5-4 2.1H8.2z"/>
    <!-- верхняя линия резинки -->
    <path d="M7 19.4h10"/>
    <!-- нижняя «U»-образная кромка резинки -->
    <path d="M8.2 20.6h7.6"/>
    <path d="M8.2 20.6c-1 .9-2.7.9-3.7 0M19.5 20.6c-1 .9-2.7.9-3.7 0"/>
  </g>
</svg>