<svg xmlns="http://www.w3.org/2000/svg" viewBox="0 0 24 24" width="24" height="24" aria-hidden="true">
  <g fill="none" stroke="currentColor" stroke-width="1.6" stroke-linecap="round" stroke-linejoin="round"
     vector-effect="non-scaling-stroke" transform="scale(-1,1) translate(-24,0)">

    <!-- Подошва: верхняя линия опущена (появился зазор) и скруглённый нос слева -->
    <path d="M4 18.4H19a1.8 1.8 0 0 1 1.8 1.8"/>
    <path d="M4 20.2H21"/>

    <!-- Ровный задник, заканчиваем выше подошвы, чтобы был зазор -->
    <path d="M4 17.6V12.8"/>

    <!-- Контур верха -->
    <path d="M4 12.8l4.8-2.4 1.9 2 2.2-1.2 4.6 2.4c1.6.8 2.5 1.1 3.5.9"/>

    <!-- Язычок -->
    <path d="M10.6 10.8l-1.6 1.4 2.4.3"/>

    <!-- Шнурки -->
    <path d="M12.6 10.6l3.6 1.4"/>
    <path d="M11.8 11.4l3.6 1.4"/>
    <path d="M11.0 12.2l3.6 1.4"/>

    <!-- Панели -->
    <path d="M6.2 17.2a5.2 5.2 0 0 1 7-3.2"/>
    <path d="M12.4 17.2a3.2 3.2 0 0 1 3.2-2.2"/>

    <!-- Деталь на союзке -->
    <path d="M9.6 14.8h2.4"/>
  </g>
</svg>