<svg xmlns="http://www.w3.org/2000/svg" viewBox="0 0 24 24" width="24" height="24">
  <g fill="none" stroke="currentColor" stroke-width="1.4" stroke-linecap="round" stroke-linejoin="round">
    <!-- пятка (ровный угол) -->
    <path d="M20 10V17.2"/>

    <!-- верх кроссовка: только контур, без "заливки" -->
    <path d="M3.2 14.2
             C6.2 12.0 10.0 11.1 13.9 11.7
             L18.1 13.3
             L20 10"/>

    <!-- язычок -->
    <path d="M13.5 10.6l-1.1 1.4"/>

    <!-- шнурки: 3 короткие полоски (влево по диагонали) -->
    <path d="M17.8 12.2l-1.2.8"/>
    <path d="M16.6 11.7l-1.2.8"/>
    <path d="M15.4 11.2l-1.1.8"/>

    <!-- дуги панелей (как в референсе) -->
    <path d="M6.1 13a5 5 0 0 1 3.1-1.9"/>
    <path d="M16.6 13a4 4 0 0 1 2.6-1.6"/>

    <!-- подошва: две линии + соединения слева и справа -->
    <path d="M3 15H21"/>     <!-- midsole -->
    <path d="M3 17.2H20"/>   <!-- outsole -->
    <path d="M3 15V17.2"/>   <!-- соединение слева -->
  </g>
</svg>