<svg xmlns="http://www.w3.org/2000/svg" viewBox="0 0 24 24" width="24" height="24" aria-hidden="true">
  <g fill="none" stroke="currentColor" stroke-width="1.8" stroke-linecap="round" stroke-linejoin="round">
    <!-- подошва -->
    <path d="M4 19H20"/>
    <path d="M4 17H20"/>
    <!-- пятка (ровная) -->
    <path d="M5 17V13"/>
    <!-- верх кроссовка -->
    <path d="M5 13l4.6-2.4 2 2 2.1-1.2 4.3 2.3c1.2.6 2.2.8 3 .6V17"/>
    <!-- язычок -->
    <path d="M12 10.7l-1.4 1.2 2.2.3"/>
    <!-- шнурки -->
    <path d="M13.8 10.8l1.7.7"/>
    <path d="M13 11.6l1.8.7"/>
    <path d="M12.2 12.4l1.8.7"/>
    <!-- дуги панелей -->
    <path d="M6.3 17a5 5 0 0 1 6.7-3"/>
    <path d="M12.7 17a3 3 0 0 1 2.7-2"/>
    <!-- маленькая перемычка -->
    <path d="M10 15h2.2"/>
  </g>
</svg>