<svg xmlns="http://www.w3.org/2000/svg" viewBox="0 0 24 24" width="24" height="24" aria-hidden="true">
  <!-- зеркалим вправо->влево, цвет берётся из currentColor -->
  <g fill="none" stroke="currentColor" stroke-width="1.8" stroke-linecap="round" stroke-linejoin="round"
     vector-effect="non-scaling-stroke" transform="scale(-1,1) translate(-24,0)">

    <!-- Подошва (двойная, как на рефе) -->
    <path d="M3 20H21"/>
    <path d="M3 18H21"/>

    <!-- Вертикальный задник (ровный угол) -->
    <path d="M4 18V13"/>

    <!-- Контур верха от пятки к носку (поднятый профиль 'Air') -->
    <path d="M4 13l4.8-2.5 1.9 2 2.2-1.2 4.6 2.4c1.6.8 2.5 1.1 3.5 1V18"/>

    <!-- Язычок -->
    <path d="M10.6 10.8l-1.8 1.6 2.6.3"/>

    <!-- Шнурки (3 шт по диагонали) -->
    <path d="M12.6 10.6l4 1.5"/>
    <path d="M11.8 11.4l4 1.5"/>
    <path d="M11.0 12.2l4 1.5"/>

    <!-- Панели (дуги) -->
    <path d="M6 18a5.2 5.2 0 0 1 7.2-3.2"/>
    <path d="M12.4 18a3.2 3.2 0 0 1 3.2-2.2"/>

    <!-- Деталь на союзке -->
    <path d="M9.6 15.6h2.6"/>
  </g>
</svg>