<svg xmlns="http://www.w3.org/2000/svg" height="24" viewBox="0 0 960 960" width="24">
  <path d="M480 880q-12 0-21-9t-9-21v-180q0-12 9-21t21-9 21 9 9 21v180q0 12-9 21t-21 9Zm0-520q-50 0-90 20-40 20-64 54-24 34-24 76 0 52 34 86t86 34q52 0 86-34t34-86q0-42-24-76-24-34-64-54-40-20-90-20Zm0-120q-80 0-150 31t-123 88q-50 57-50 136 0 12 9 21t21 9h14q12 0 21-9t9-21q0-68 45-118t108-68q63-17 128-17 65 0 128 17 63 17 108 68t45 118q0 12 9 21t21 9h14q12 0 21-9t9-21q0-79-50-136-57-57-123-88t-150-31Zm0 0"/>
</svg>