<svg xmlns="http://www.w3.org/2000/svg" height="24" viewBox="0 0 960 960" width="24">
  <path d="M480 840q-12 0-21-9t-9-21v-180q0-12 9-21t21-9 21 9 9 21v180q0 12-9 21t-21 9Zm0-500q-50 0-95 25-45 25-75 70-30 45-30 100 0 12 9 21t21 9h14q12 0 21-9t9-21q0-47 33-80t80-33q47 0 80 33t33 80q0 12 9 21t21 9h14q12 0 21-9t9-21q0-55-30-100-30-45-75-70-45-25-95-25Zm0-120q-80 0-150 55-70 55-70 155 0 12 9 21t21 9h14q12 0 21-9t9-21q0-75 53-128t128-53q75 0 128 53t53 128q0 12 9 21t21 9h14q12 0 21-9t9-21q0-100-70-155-70-55-150-55Z"/>
</svg>