<svg xmlns="http://www.w3.org/2000/svg" height="24" viewBox="0 0 960 960" width="24">
  <path d="M480 100q-60 0-100 40t-40 100q0 23 8 45t22 41q-14 12-22 28t-8 33q0 39 28 67t67 28q18 0 33-8t28-22q17 14 39 22t45 8q60 0 100-40t40-100q0-23-8-45t-22-41q14-12 22-28t8-33q0-39-28-67t-67-28q-18 0-33 8t-28 22q-17-14-39-22t-45-8Zm0 60q43 0 73 30t30 73q0 18-6 35t-16 30q-14-12-33-12-18 0-33 12-10-12-16-30t-6-35q0-43 30-73t73-30Zm0 420q-35 0-60 25t-25 60v160h170V705q0-35-25-60t-60-25Zm-60 60q0-33 23-56t56-23 56 23 23 56v80H420v-80Zm-120 200h360v60H300v-60Z"/>
</svg>