<svg xmlns="http://www.w3.org/2000/svg" viewBox="0 -960 960 960" width="24" height="24">
  <path fill="#000" d="M337.694-163.847q-90.692-33-158.038-99.615-67.346-66.614-76.193-160.383-1.154-14.692 8.423-25.423 9.577-10.731 24.269-10.731h43.846v-292.462q0-13.461 9.039-23.5 9.038-10.038 22.5-11.653l621.997-69.154q11.308-1.615 18.885 5.654 7.577 7.269 7.577 18.577 0 8.692-6.462 15.461-6.461 6.769-15.153 7.769l-419.923 46.692v76.078h417.692q10.307 0 17.076 6.769 6.77 6.769 6.77 17.076 0 10.308-6.77 17.077-6.769 6.769-17.076 6.769H418.461v178.847h405.384q14.692 0 24.461 10.731 9.769 10.731 8.615 25.423-8.846 94.153-76.385 160.96-67.538 66.807-158.999 99.038v27.692q0 15.461-10.346 25.807-10.346 10.347-25.807 10.347H373.847q-15.461 0-25.807-10.347-10.346-10.346-10.346-25.807v-27.692Z"/>
</svg>