<svg xmlns="http://www.w3.org/2000/svg" height="24" viewBox="0 0 960 960" width="24">
  <path d="M480 840q-12 0-21-9t-9-21v-180q0-12 9-21t21-9 21 9 9 21v180q0 12-9 21t-21 9Zm0-440q-80 0-140 60-60 60-60 140 0 12 9 21t21 9h10q12 0 21-9t9-21q0-60 42-102t102-42q60 0 102 42t42 102q0 12 9 21t21 9h10q12 0 21-9t9-21q0-80-60-140-60-60-140-60Zm0-120q-110 0-210 70-100 70-100 200 0 12 9 21t21 9h14q12 0 21-9t9-21q0-110 81-181t189-71q108 0 189 71t81 181q0 12 9 21t21 9h14q12 0 21-9t9-21q0-130-100-200-100-70-210-70Z"/>
</svg>